<svg xmlns="http://www.w3.org/2000/svg" width="840" height="820" viewBox="0 0 840 820" role="img" aria-labelledby="title desc">
<title id="title">04 · 一个编号怎样变成一串数？ ★</title><desc id="desc">Embedding 是一张表；输入 ID，取出对应的一行。。人工教学示例，不代表实测模型。</desc>
<defs><marker id="arrow" viewBox="0 0 10 10" refX="9" refY="5" markerWidth="7" markerHeight="7" orient="auto-start-reverse"><path d="M0,0 L10,5 L0,10 Z" fill="context-stroke"/></marker><pattern id="hatch" width="10" height="10" patternUnits="userSpaceOnUse"><path d="M0,10 L10,0" stroke="#c65255" stroke-width="1" opacity=".3"/></pattern></defs>
<rect width="840" height="820" fill="#fbfaf7" rx="16"/>
<g font-family="PingFang SC, Noto Sans CJK SC, Microsoft YaHei, sans-serif">
<text x="32" y="49" font-size="32" font-weight="650" fill="#192d42" text-anchor="start">04  一个编号怎样变成一串数？ ★</text>
<text x="32" y="90" font-size="24" font-weight="400" fill="#536778" text-anchor="start">Embedding 是一张表；输入 ID，取出对应的一行。</text>
<path d="M32,113 L808,113" fill="none" stroke="#d7ddd9" stroke-width="2" opacity="1"/>
<text x="32" y="798" font-size="19" font-weight="400" fill="#536778" text-anchor="start">原创教学示意 · 数字为人工例子 · ★ 核心模块</text>
<rect x="46" y="285" width="130" height="51" rx="10" fill="#f8eee1" stroke="#c87917" stroke-width="2"/>
<text x="111.0" y="319" font-size="26" font-weight="650" fill="#c87917" text-anchor="middle">ID 17</text>
<text x="306" y="250" font-size="25" font-weight="400" fill="#192d42" text-anchor="middle">16</text>
<rect x="363" y="216" width="66" height="66" rx="6" fill="#e4edf8" stroke="none" stroke-width="2"/>
<text x="396.0" y="262.23" font-size="23" font-weight="400" fill="#192d42" text-anchor="middle">0.1</text>
<rect x="432" y="216" width="66" height="66" rx="6" fill="#cfdff2" stroke="none" stroke-width="2"/>
<text x="465.0" y="262.23" font-size="23" font-weight="400" fill="#192d42" text-anchor="middle">0.5</text>
<rect x="501" y="216" width="66" height="66" rx="6" fill="#dfeaf6" stroke="none" stroke-width="2"/>
<text x="534.0" y="262.23" font-size="23" font-weight="400" fill="#192d42" text-anchor="middle">−0.2</text>
<rect x="570" y="216" width="66" height="66" rx="6" fill="#b9d1ec" stroke="none" stroke-width="2"/>
<text x="603.0" y="262.23" font-size="23" font-weight="400" fill="#192d42" text-anchor="middle">0.9</text>
<rect x="266" y="278" width="435" height="66" rx="6" fill="#fbf4ec" stroke="#c87917" stroke-width="2"/>
<text x="306" y="319" font-size="25" font-weight="400" fill="#192d42" text-anchor="middle">17</text>
<rect x="363" y="285" width="66" height="66" rx="6" fill="#f7ebdc" stroke="none" stroke-width="2"/>
<text x="396.0" y="331.23" font-size="23" font-weight="400" fill="#192d42" text-anchor="middle">0.2</text>
<rect x="432" y="285" width="66" height="66" rx="6" fill="#f8eee2" stroke="none" stroke-width="2"/>
<text x="465.0" y="331.23" font-size="23" font-weight="400" fill="#192d42" text-anchor="middle">−0.1</text>
<rect x="501" y="285" width="66" height="66" rx="6" fill="#f0dabf" stroke="none" stroke-width="2"/>
<text x="534.0" y="331.23" font-size="23" font-weight="400" fill="#192d42" text-anchor="middle">0.7</text>
<rect x="570" y="285" width="66" height="66" rx="6" fill="#f4e4d1" stroke="none" stroke-width="2"/>
<text x="603.0" y="331.23" font-size="23" font-weight="400" fill="#192d42" text-anchor="middle">0.4</text>
<text x="306" y="388" font-size="25" font-weight="400" fill="#192d42" text-anchor="middle">18</text>
<rect x="363" y="354" width="66" height="66" rx="6" fill="#bed4ee" stroke="none" stroke-width="2"/>
<text x="396.0" y="400.23" font-size="23" font-weight="400" fill="#192d42" text-anchor="middle">0.8</text>
<rect x="432" y="354" width="66" height="66" rx="6" fill="#d9e6f5" stroke="none" stroke-width="2"/>
<text x="465.0" y="400.23" font-size="23" font-weight="400" fill="#192d42" text-anchor="middle">0.3</text>
<rect x="501" y="354" width="66" height="66" rx="6" fill="#dfeaf6" stroke="none" stroke-width="2"/>
<text x="534.0" y="400.23" font-size="23" font-weight="400" fill="#192d42" text-anchor="middle">0.2</text>
<rect x="570" y="354" width="66" height="66" rx="6" fill="#cfdff2" stroke="none" stroke-width="2"/>
<text x="603.0" y="400.23" font-size="23" font-weight="400" fill="#192d42" text-anchor="middle">−0.5</text>
<text x="306" y="457" font-size="25" font-weight="400" fill="#192d42" text-anchor="middle">19</text>
<rect x="363" y="423" width="66" height="66" rx="6" fill="#c9dbf0" stroke="none" stroke-width="2"/>
<text x="396.0" y="469.23" font-size="23" font-weight="400" fill="#192d42" text-anchor="middle">0.6</text>
<rect x="432" y="423" width="66" height="66" rx="6" fill="#bed4ee" stroke="none" stroke-width="2"/>
<text x="465.0" y="469.23" font-size="23" font-weight="400" fill="#192d42" text-anchor="middle">−0.8</text>
<rect x="501" y="423" width="66" height="66" rx="6" fill="#e4edf8" stroke="none" stroke-width="2"/>
<text x="534.0" y="469.23" font-size="23" font-weight="400" fill="#192d42" text-anchor="middle">0.1</text>
<rect x="570" y="423" width="66" height="66" rx="6" fill="#dfeaf6" stroke="none" stroke-width="2"/>
<text x="603.0" y="469.23" font-size="23" font-weight="400" fill="#192d42" text-anchor="middle">0.2</text>
<text x="301" y="177" font-size="25" font-weight="650" fill="#192d42" text-anchor="middle">ID</text>
<text x="501" y="177" font-size="27" font-weight="650" fill="#192d42" text-anchor="middle">嵌入表 E 的特征列</text>
<path d="M181,310 L260,310" fill="none" stroke="#c87917" stroke-width="4" opacity="1" marker-end="url(#arrow)"/>
<text x="80" y="547" font-size="29" font-weight="650" fill="#c87917" text-anchor="start">取出第 17 行</text>
<path d="M702,310 L746,310 L746,577 L596,577" fill="none" stroke="#c87917" stroke-width="3" stroke-linecap="round" stroke-linejoin="round" opacity="1" marker-end="url(#arrow)"/>
<rect x="317" y="549" width="67" height="67" rx="6" fill="#f7ebdc" stroke="none" stroke-width="2"/>
<text x="350.5" y="595.9" font-size="23" font-weight="400" fill="#192d42" text-anchor="middle">0.2</text>
<rect x="387" y="549" width="67" height="67" rx="6" fill="#f8eee2" stroke="none" stroke-width="2"/>
<text x="420.5" y="595.9" font-size="23" font-weight="400" fill="#192d42" text-anchor="middle">−0.1</text>
<rect x="457" y="549" width="67" height="67" rx="6" fill="#f0dabf" stroke="none" stroke-width="2"/>
<text x="490.5" y="595.9" font-size="23" font-weight="400" fill="#192d42" text-anchor="middle">0.7</text>
<rect x="527" y="549" width="67" height="67" rx="6" fill="#f4e4d1" stroke="none" stroke-width="2"/>
<text x="560.5" y="595.9" font-size="23" font-weight="400" fill="#192d42" text-anchor="middle">0.4</text>
<rect x="32" y="666" width="776" height="100" rx="8" fill="#eff6f5" stroke="none" stroke-width="2"/>
<rect x="32" y="666" width="5" height="100" rx="0" fill="#168574" stroke="none" stroke-width="2"/>
<text x="52" y="702" font-size="26" font-weight="650" fill="#168574" text-anchor="start">现在有了可计算的向量，但还没有句内上下文</text>
<text x="52" y="740" font-size="23" font-weight="400" fill="#192d42" text-anchor="start">同一个 ID 先查到同一行；后面再结合位置与上下文。</text>
</g></svg>
